<svg width="176" height="166" viewBox="0 0 176 166" fill="none" xmlns="http://www.w3.org/2000/svg">
<g clip-path="url(#clip0_143_25)">
<path d="M151.36 87.8853C150.21 103.422 143.634 118.067 132.774 129.273C121.914 140.479 107.458 147.538 91.918 149.224" stroke="#3B7DED" stroke-width="16.2976"/>
<path d="M16.8195 75.3188C18.7107 60.0391 25.8525 45.8835 37.0311 35.2581C48.2096 24.6327 62.7351 18.1931 78.1386 17.0338" stroke="#E43E2B" stroke-width="16.2976"/>
<path d="M150.523 75.0859C148.698 60.2181 141.9 46.3968 131.225 35.8525C120.55 25.3083 106.623 18.6562 91.689 16.9698" stroke="#2BA24C" stroke-width="16.2976"/>
<path d="M16.9899 88.1226C18.1663 103.731 24.8186 118.429 35.7802 129.638C46.7418 140.847 61.3129 147.852 76.9385 149.426" stroke="#F0B501" stroke-width="16.2976"/>
<path d="M104.008 70.4571L100.843 73.8991H111.649L111.576 95.0774H114.664L114.737 73.8991H125.962L129.128 70.457L104.008 70.4571Z" fill="white" stroke="white" stroke-width="0.747804"/>
<path d="M90.3079 134.338C102.24 132.952 113.305 127.46 121.607 118.802C129.908 110.144 134.929 98.8597 135.81 86.882" stroke="#2BA24C" stroke-width="3.10487"/>
<path d="M40.4932 70.4653H58.6145C71.5785 72.5007 70.9951 93.435 58.5372 95.1621H48.8732V91.7982H57.6118C67.5827 89.7562 65.7236 74.674 57.8432 73.9118H43.8089L40.4932 70.4653Z" fill="white" stroke="white" stroke-width="0.747804"/>
<path d="M82.1209 0.761827C83.8641 0.700452 85.6095 0.700255 87.3528 0.761226L84.7965 61.5718L82.1209 0.761827Z" fill="white" stroke="white" stroke-width="1.43492"/>
<path d="M166.641 84.7496C166.68 82.9425 166.68 81.1334 166.642 79.3263L128.324 81.9761L166.641 84.7496Z" fill="white"/>
<path d="M82.1206 164.534C83.8639 164.595 85.6092 164.596 87.3526 164.535L84.7963 103.724L82.1206 164.534Z" fill="white" stroke="white" stroke-width="1.43492"/>
<path d="M0.598023 84.7496C0.559346 82.9425 0.559217 81.1334 0.597632 79.3262L38.915 81.9761L0.598023 84.7496Z" fill="white" stroke="white" stroke-width="1.15969"/>
<path d="M99.2633 70.4653H81.142C68.1779 72.5007 68.7613 93.435 81.2193 95.1621H90.8833V91.7982H82.1447C72.1737 89.7562 74.0328 74.674 81.9133 73.9118H95.9476L99.2633 70.4653Z" fill="white" stroke="white" stroke-width="0.747804"/>
<path d="M78.6875 133.899C66.8063 132.609 55.7233 127.252 47.3168 118.738C38.9103 110.224 33.6975 99.0761 32.5618 87.1836" stroke="#3B7DED" stroke-width="3.10487"/>
<path d="M78.4236 30.8647C66.7353 32.194 55.8618 37.4649 47.5941 45.809C39.3265 54.1531 34.1578 65.0729 32.9395 76.7697" stroke="#F0B501" stroke-width="3.10487"/>
<path d="M90.3208 31.962C101.538 33.387 111.993 38.4399 120.09 46.3496C128.188 54.2593 133.483 64.5915 135.169 75.7695" stroke="#E43E2B" stroke-width="3.10487"/>
</g>
<defs>
<clipPath id="clip0_143_25">
<rect width="175.787" height="165.296" fill="white"/>
</clipPath>
</defs>
</svg>
